# xmcd CD database file
#
# Track frame offsets:
#	150
#	20590
#	40836
#	70199
#	121649
#	147271
#	165446
#	190572
#	218839
#	254075
#	290490
#	319408
#
# Disc length: 4560 seconds
#
# Revision: 1
# Processed by: cddbd v1.5.2PL0 Copyright (c) Steve Scherf et al.
# Submitted via: jetAudio 5
#
DISCID=ae11ce0c
DTITLE=Andrew "Jr. Boy" Jones - "Jr. Boy" Live
DYEAR=2006
DGENRE=Blues
TTITLE0=I Got A Stick
TTITLE1=Bang Bang
TTITLE2=She's Fine
TTITLE3=Lost Love Blues
TTITLE4=Blues Belly
TTITLE5=Noises in the Backroom
TTITLE6=Georgia On My Mind (Instrumental)
TTITLE7=Big Legs Heavy Bottom
TTITLE8=I Need Time
TTITLE9=Fast Woman
TTITLE10=No Respect
TTITLE11=I Got To Go
EXTD=
EXTT0=
EXTT1=
EXTT2=
EXTT3=
EXTT4=
EXTT5=
EXTT6=
EXTT7=
EXTT8=
EXTT9=
EXTT10=
EXTT11=
PLAYORDER=
